 <svg
          width="140"
          height="50"
          viewBox="0 0 150 40"
          fill="none"
          xmlns="http://www.w3.org/2000/svg"
        >
          <path
            d="M0.639128 23.8929C0.640911 23.8929 0.642694 23.8929 0.644477 23.8929L12.3245 23.7612L28.8418 39.8277C28.9645 39.947 29.1242 40 29.2859 40C29.4068 40 29.5292 39.9614 29.6364 39.889L72.5328 11.4205C72.7766 11.2581 72.8806 10.9477 72.7857 10.6681C72.6889 10.3882 72.4145 10.2116 72.125 10.2375L40.5691 13.0772L20.5153 0.102442C20.2487 -0.0704293 19.8973 -0.0201866 19.6892 0.220504L0.157842 22.7558C-0.00757004 22.9466 -0.0470715 23.2524 0.0588142 23.4831C0.162643 23.7125 0.389501 23.8929 0.639128 23.8929ZM52.1543 22.1053L31.0937 22.2806L40.4574 14.537L52.1543 22.1053ZM7.60495 17.3395L16.8583 16.5065C16.1485 16.9724 15.3969 17.5522 14.6948 18.2607C13.3247 19.6441 12.6229 20.9869 12.2727 21.8844L7.60495 17.3395ZM29.3617 38.5243L13.2867 22.8719C13.4728 22.2394 14.046 20.7403 15.5992 19.1735C17.2603 17.4964 19.2839 16.5928 20.0513 16.2906L28.878 23.4437C28.9378 23.4924 29.0041 23.5277 29.0752 23.5513C29.1512 23.5781 29.2307 23.5886 29.31 23.5855L52.159 23.3951L29.3617 38.5243ZM69.7072 11.7495L54.3101 21.9675L42.3263 14.2139L69.7072 11.7495ZM20.2889 1.48777L39.3266 13.8056L29.2819 22.1118L20.5762 15.0577C20.5351 15.0243 20.4895 14.9989 20.4422 14.977C20.4286 14.9705 20.4148 14.9654 20.4009 14.9598C20.3802 14.9519 20.3595 14.9443 20.3381 14.9386C20.3107 14.931 20.2828 14.9255 20.2546 14.9216C20.2475 14.9208 20.2405 14.9197 20.2333 14.919C20.1882 14.9144 20.1428 14.915 20.0974 14.9202L7.67778 16.038L20.2889 1.48777ZM6.19045 17.754L11.0114 22.4484L2.05734 22.5227L6.19045 17.754Z"
            fill="#0E161E"
          ></path>
          <path
            d="M86.8834 21.1339C86.5414 20.7925 86.1394 20.5112 85.6755 20.3106C85.2121 20.1102 84.7162 20 84.1894 20H79.4642V30.7207H81.4997V27.5995H83.8523C84.5357 27.5995 85.1388 27.4791 85.6609 27.2883C86.1828 27.0978 86.6147 26.8211 86.9567 26.484C87.2981 26.1477 87.5571 25.7483 87.7328 25.2986C87.9084 24.8508 87.9962 24.3587 87.9962 23.8319C87.9962 23.305 87.896 22.8084 87.6964 22.3436C87.4959 21.8806 87.2249 21.4765 86.8834 21.1339ZM85.8439 24.531C85.7757 24.7563 85.6705 24.9559 85.5291 25.1315C85.3871 25.3071 85.2045 25.4454 84.9802 25.5482C84.7557 25.6512 84.4923 25.6996 84.1894 25.6996H81.4997V21.8999H83.9698C84.2919 21.8999 84.5747 21.9263 84.8191 22.0433C85.0629 22.1604 85.2679 22.2975 85.4337 22.4819C85.6001 22.6681 85.7268 22.8731 85.8146 23.1118C85.9024 23.3504 85.9468 23.5886 85.9468 23.8326C85.9468 24.0753 85.9122 24.3058 85.8439 24.531Z"
            fill="#0E161E"
          ></path>
          <path
            d="M96.8104 21.1339C96.4689 20.7925 96.0662 20.5112 95.6024 20.3106C95.1389 20.1102 94.6436 20 94.1163 20H89.3705V30.7207H91.4061V27.5995H93.7793C94.4627 27.5995 95.0658 27.4791 95.5877 27.2883C96.1096 27.0978 96.5416 26.8211 96.8836 26.484C97.225 26.1477 97.4841 25.7483 97.6601 25.2986C97.8353 24.8508 97.9231 24.3587 97.9231 23.8319C97.9231 23.305 97.8229 22.8084 97.6233 22.3436C97.4227 21.8806 97.1523 21.4765 96.8104 21.1339ZM95.7709 24.531C95.7027 24.7563 95.5975 24.9559 95.4561 25.1315C95.3147 25.3071 95.1315 25.4454 94.9072 25.5482C94.6827 25.6512 94.4189 25.6996 94.1164 25.6996H91.4061V21.8999H93.8968C94.2189 21.8999 94.5018 21.9263 94.7461 22.0433C94.9899 22.1604 95.1949 22.2975 95.3612 22.4819C95.5267 22.6681 95.6535 22.8731 95.7417 23.1118C95.8295 23.3504 95.8739 23.5886 95.8739 23.8326C95.8738 24.0753 95.8392 24.3058 95.7709 24.531Z"
            fill="#0E161E"
          ></path>
          <path
            d="M103.805 26.2077L100.921 20H98.6661L103.747 30.7207H103.863L108.959 20H106.69L103.805 26.2077Z"
            fill="#0E161E"
          ></path>
          <path
            d="M110.269 30.7207H118.14V28.9565H112.305V26.3781H117.461V24.4783H112.305V21.8999H118.14V20H110.269V30.7207Z"
            fill="#0E161E"
          ></path>
          <path
            d="M128.161 25.8339C128.568 25.229 128.77 24.5213 128.77 23.7114C128.77 23.1748 128.679 22.6791 128.498 22.2249C128.318 21.7708 128.066 21.3805 127.743 21.0542C127.42 20.726 127.031 20.4614 126.577 20.2804C126.122 20.1004 125.621 20 125.073 20H120.176V30.7207H122.211V27.3281H124.283C124.692 27.8709 125.1 28.4799 125.51 29.0466C125.917 29.6125 126.336 30.1779 126.764 30.7207H129.208C128.331 29.4993 127.441 28.3186 126.54 27.1273C127.215 26.8649 127.755 26.4397 128.161 25.8339ZM125.648 25.4289C125.447 25.5007 125.256 25.5639 125.071 25.5639H122.211V21.8999H125.071C125.43 21.8999 125.717 21.9369 125.932 22.0726C126.146 22.21 126.311 22.3603 126.428 22.5555C126.544 22.7514 126.622 22.9478 126.662 23.1623C126.701 23.377 126.72 23.5593 126.72 23.7153C126.72 24.0178 126.669 24.2793 126.567 24.5046C126.464 24.7281 126.336 24.928 126.18 25.0787C126.024 25.2314 125.846 25.3553 125.648 25.4289Z"
            fill="#0E161E"
          ></path>
          <path
            d="M135.169 25.5431L139.574 20H137.057L132.796 25.4677V20H130.76V30.7207H132.796V25.8631L137.291 30.7207H140L135.169 25.5431Z"
            fill="#0E161E"
          ></path>
          <path
            d="M72.4764 20L67 30.7207H69.2254L70.0453 29.0922H70.0675L72.5788 24.0705L75.0898 29.0922H75.0972L75.9314 30.7207H78.1572L72.6809 20H72.4764Z"
            fill="#0E161E"
          ></path>
        </svg>